<svg width="88" height="88" viewBox="0 0 88 88" fill="none" xmlns="http://www.w3.org/2000/svg">
<g clip-path="url(#clip0_40_13328)">
<path d="M61.5 42.0761C63.7701 41.9785 65.9032 42.0415 67.8562 42.26C71.0644 42.6189 73.7715 43.3956 75.7997 44.5556C77.8261 45.7147 79.1568 47.2447 79.6602 49.1095C80.1636 50.9744 79.8056 53.0475 78.6787 55.2206C77.5508 57.3954 75.6621 59.6502 73.1446 61.8503C72.7761 62.1723 72.3944 62.493 72 62.8118M28.2887 52.7434C26.3172 54.0125 24.543 55.3362 23.0003 56.6845C20.4828 58.8847 18.5941 61.1393 17.4662 63.3143C16.3393 65.4874 15.9813 67.5605 16.4847 69.4252C16.9881 71.29 18.3188 72.8201 20.3452 73.9791C22.3734 75.1392 25.0805 75.916 28.2887 76.2748C34.7041 76.9925 43.0626 76.0328 51.8366 73.2113C52.5668 72.9765 53.2882 72.7326 54 72.4801" stroke="#2A373D" stroke-width="0.7"/>
<path d="M64.8571 56.7907L56.843 23.9492C56.2182 21.3886 53.699 19.8994 51.2192 20.6246L26.9782 27.7139C24.4981 28.4391 22.9987 31.1041 23.631 33.6628L34.1662 76.2922C34.1832 76.2925 34.2013 76.2927 34.2203 76.2929C34.4057 76.2952 34.684 76.2952 35.0526 76.2858C35.7896 76.2671 36.8873 76.2114 38.323 76.0627C41.1942 75.7654 45.4175 75.0964 50.8111 73.6089C51.8964 73.3096 52.9632 72.9752 54 72.6185" stroke="#2A373D" stroke-width="0.7"/>
<path d="M52.4481 32.7855L30.8686 39.0963C30.5027 39.2033 30.2813 39.5962 30.374 39.9738L30.807 41.7375C30.8997 42.1151 31.2715 42.3345 31.6373 42.2276L53.2168 35.9166C53.5827 35.8096 53.8041 35.4168 53.7114 35.0392L53.2784 33.2754C53.1857 32.8978 52.814 32.6784 52.4481 32.7855Z" fill="#B6BEC2"/>
<path d="M46.787 44.1757L33.1733 48.1462C32.8074 48.2532 32.586 48.646 32.6787 49.0237L33.1117 50.7874C33.2044 51.165 33.5761 51.3844 33.942 51.2774L47.5557 47.3068C47.9216 47.1999 48.143 46.807 48.0503 46.4294L47.6173 44.6657C47.5246 44.288 47.1529 44.0686 46.787 44.1757Z" fill="#B6BEC2"/>
<path d="M57.5074 57.6702C58.8612 56.2849 60.9317 55.8508 63.224 56.32C65.5143 56.7887 67.9952 58.1559 70.1121 60.3222C72.2291 62.4883 73.5653 65.027 74.0234 67.3705C74.4818 69.7161 74.0576 71.8347 72.7038 73.22C71.35 74.6054 69.2795 75.0393 66.9872 74.5703C64.697 74.1015 62.216 72.7343 60.0991 70.5681C57.9821 68.4019 56.6459 65.8633 56.1878 63.5197C55.7294 61.1741 56.1536 59.0555 57.5074 57.6702Z" stroke="#2A373D" stroke-width="0.7"/>
<path d="M61.4764 59.6105C62.6215 58.4387 65.4062 59.3886 67.6964 61.732" stroke="#2A373D" stroke-width="0.7" stroke-linecap="round"/>
<path fill-rule="evenodd" clip-rule="evenodd" d="M68.8913 77.2449C65.9304 80.2746 60.1013 79.222 55.8715 74.8939C51.6417 70.5657 50.6131 64.6011 53.5739 61.5714L57.1479 57.9142L57.1573 57.9238C54.6551 60.8919 55.8541 66.5177 59.9557 70.7147C64.0573 74.9117 69.5553 76.1386 72.4559 73.5782L72.4653 73.5878L68.8913 77.2449Z" fill="#E6E9EB" stroke="#2A373D" stroke-width="0.7"/>
<path fill-rule="evenodd" clip-rule="evenodd" d="M62.9334 11.2445C61.9596 8.21025 64.8137 4.52618 69.3081 3.01602C73.8026 1.50587 78.2354 2.74139 79.2092 5.77566L80.3812 9.42764C80.383 9.43354 80.3799 9.43982 80.3741 9.44178Lnan nanL80.3741 9.44178C79.2734 6.74528 75.009 5.73853 70.6512 7.20269C66.296 8.66625 63.4458 12.0609 64.1173 14.8992C64.1179 14.9019 64.1164 14.9046 64.1139 14.9054Lnan nanLnan nanL64.1139 14.9054C64.1111 14.9064 64.1081 14.9048 64.1072 14.902L62.9334 11.2445Z" fill="#E6E9EB"/>
<path fill-rule="evenodd" clip-rule="evenodd" d="M69.2626 3.01601C64.7682 4.52617 61.9141 8.21024 62.8879 11.2445L63.5501 13.3082C63.7623 12.5106 64.1966 11.6946 64.8374 10.904C66.093 9.35545 68.0995 7.96752 70.5677 7.13833C73.0357 6.3089 75.4557 6.20949 77.3639 6.6949C78.3632 6.94926 79.2029 7.35704 79.8422 7.89026L79.1636 5.77565C78.1898 2.74138 73.757 1.50586 69.2626 3.01601ZM81.027 9.54343C81.043 9.43775 81.0354 9.32667 81.0005 9.21774L79.8285 5.56576C79.2467 3.75299 77.6559 2.55702 75.715 2.01606C73.77 1.47395 71.3951 1.55807 69.0358 2.3508C66.6761 3.14366 64.719 4.51526 63.4717 6.12532C62.2289 7.72959 61.6427 9.64636 62.223 11.4544L63.3967 15.1119C63.4234 15.195 63.4638 15.2698 63.5147 15.3346C63.5316 15.4002 63.5504 15.4653 63.5712 15.5299C64.0262 16.948 65.3554 17.9995 67.2709 18.4869C69.1793 18.9725 71.5991 18.873 74.0673 18.0437C76.5354 17.2143 78.542 15.8266 79.7974 14.2779C81.0578 12.7233 81.5189 11.0703 81.0638 9.65203C81.0521 9.61558 81.0399 9.57939 81.027 9.54343Z" fill="#2A373D"/>
<path d="M80.3937 10.0724C80.8075 11.3621 80.4146 12.6779 79.2683 14.0916C78.1268 15.4999 76.4984 16.3017 74.0231 17.392C71.7786 18.1462 69.5862 18.5482 67.8508 18.1066C66.1089 17.6633 64.9002 16.7071 64.4864 15.4175C64.0724 14.1279 64.4919 12.6246 65.6379 11.2109C66.7797 9.80266 68.6043 8.54052 70.8488 7.78648C73.0932 7.03222 75.2939 6.94182 77.0291 7.38324C78.7712 7.82665 79.9799 8.78282 80.3937 10.0724Z" fill="white"/>
<path fill-rule="evenodd" clip-rule="evenodd" d="M73.6811 15.1579C73.621 14.9748 73.7167 14.7759 73.8948 14.7136C75.0842 14.2979 76.0724 13.6887 76.7108 13.0549C77.3696 12.4007 77.5708 11.8152 77.4463 11.4114C77.3895 11.2272 77.4887 11.03 77.6679 10.9711C77.8471 10.9122 78.0384 11.0138 78.0952 11.1981C78.3433 12.0028 77.8874 12.8588 77.1828 13.5584C76.4578 14.2783 75.3761 14.9351 74.1124 15.3768C73.9342 15.4391 73.7411 15.3411 73.6811 15.1579Z" fill="#2A373D"/>
<path fill-rule="evenodd" clip-rule="evenodd" d="M9.80985 22.0432C11.5835 21.0191 14.2856 22.3112 15.8451 24.9292C17.4046 27.5473 17.2309 30.4997 15.4572 31.5238L13.3225 32.7564C13.319 32.7584 13.3147 32.7572 13.3126 32.7538Lnan nanL13.3126 32.7538C14.8569 31.696 14.9097 28.8803 13.3977 26.3419C11.8864 23.805 9.36666 22.476 7.67495 23.2835C7.67338 23.2843 7.6715 23.2837 7.6706 23.2823Lnan nanLnan nanL7.6706 23.2823C7.66963 23.2806 7.67019 23.2785 7.67184 23.2776L9.80985 22.0432Z" fill="#E6E9EB"/>
<path fill-rule="evenodd" clip-rule="evenodd" d="M15.8389 24.9006C14.2795 22.2826 11.5773 20.9904 9.80366 22.0145L8.5973 22.711C9.1272 22.7359 9.69883 22.8978 10.2826 23.1929C11.4259 23.7711 12.5705 24.8429 13.4268 26.2807C14.2833 27.7183 14.6746 29.225 14.6291 30.4896C14.6051 31.1519 14.4631 31.7348 14.215 32.2088L15.4511 31.4952C17.2247 30.4711 17.3984 27.5186 15.8389 24.9006ZM13.3376 33.1778C13.4061 33.1735 13.4748 33.1536 13.5385 33.1169L15.6733 31.8843C16.7329 31.2725 17.268 30.1106 17.344 28.8179C17.4202 27.5224 17.0446 26.042 16.226 24.6677C15.4072 23.2932 14.2796 22.2503 13.0987 21.6855C11.922 21.1229 10.6383 21.0152 9.58145 21.6254L7.44344 22.8598C7.39485 22.8878 7.35333 22.9234 7.31952 22.9642C7.28067 22.9837 7.24237 23.0044 7.20462 23.0262C6.37565 23.5048 5.89575 24.4826 5.84992 25.7521C5.80426 27.0169 6.19567 28.5235 7.05207 29.9612C7.90848 31.3988 9.05296 32.4707 10.1964 33.0488C11.3442 33.6293 12.4453 33.6943 13.2743 33.2157C13.2956 33.2034 13.3167 33.1907 13.3376 33.1778Z" fill="#2A373D"/>
<path d="M12.9191 32.8519C12.1652 33.2871 11.2852 33.2191 10.2414 32.6912C9.20162 32.1655 8.47664 31.2516 7.45534 29.8449C6.67655 28.5374 6.12607 27.2149 6.16759 26.0648C6.20927 24.9103 6.64568 24.0211 7.39952 23.5859C8.15337 23.1505 9.15467 23.2097 10.1985 23.7375C11.2383 24.2633 12.2791 25.2379 13.0578 26.5454C13.8366 27.8527 14.1925 29.2228 14.1511 30.3729C14.1093 31.5274 13.6729 32.4166 12.9191 32.8519Z" fill="white"/>
<path fill-rule="evenodd" clip-rule="evenodd" d="M8.8122 29.3264C8.91908 29.2637 9.05705 29.2968 9.12037 29.4003C9.54314 30.0909 10.0601 30.6288 10.5451 30.9437C11.0455 31.2687 11.4407 31.3154 11.6774 31.1824C11.7854 31.1216 11.9227 31.1572 11.9841 31.2617C12.0454 31.3663 12.0076 31.5003 11.8996 31.561C11.4278 31.8262 10.8282 31.6562 10.2929 31.3087C9.74213 30.951 9.18254 30.3608 8.73332 29.627C8.67 29.5236 8.70532 29.389 8.8122 29.3264Z" fill="#2A373D"/>
</g>
<defs>
<clipPath id="clip0_40_13328">
<rect width="88" height="88" fill="white"/>
</clipPath>
</defs>
</svg>
