<svg width="72" height="72" viewBox="0 0 72 72" fill="none" xmlns="http://www.w3.org/2000/svg">
<circle cx="36" cy="36" r="27" fill="#FFAA00" fill-opacity="0.12"/>
<circle cx="36" cy="36.0002" r="19.8" fill="#F5A300"/>
<path fill-rule="evenodd" clip-rule="evenodd" d="M36 27.3789C36.7456 27.3789 37.35 27.9833 37.35 28.7289V37.83C37.35 38.5756 36.7456 39.18 36 39.18C35.2544 39.18 34.65 38.5756 34.65 37.83V28.7289C34.65 27.9833 35.2544 27.3789 36 27.3789Z" fill="white"/>
<path d="M37.232 41.8864C36.8978 41.5383 36.494 41.3643 36.0207 41.3643C35.5334 41.3643 35.1226 41.5383 34.7885 41.8864C34.4404 42.2345 34.2664 42.6452 34.2664 43.1186C34.2664 43.6059 34.4404 44.0236 34.7885 44.3716C35.1365 44.7197 35.5473 44.8937 36.0207 44.8937C36.494 44.8937 36.8978 44.7197 37.232 44.3716C37.5661 44.0236 37.7332 43.6059 37.7332 43.1186C37.7332 42.6452 37.5661 42.2345 37.232 41.8864Z" fill="white"/>
</svg>
